<?xml version="1.0" standalone="no"?>
<!DOCTYPE svg PUBLIC "-//W3C//DTD SVG 20010904//EN"
 "http://www.w3.org/TR/2001/REC-SVG-20010904/DTD/svg10.dtd">
<svg version="1.0" xmlns="http://www.w3.org/2000/svg"
 width="224.000000pt" height="223.000000pt" viewBox="0 0 224.000000 223.000000"
 preserveAspectRatio="xMidYMid meet">
<metadata>
Created by potrace 1.15, written by Peter Selinger 2001-2017
</metadata>
<g transform="translate(0.000000,223.000000) scale(0.100000,-0.100000)"
fill="#000000" stroke="none">
<path d="M885 2190 c-219 -50 -399 -153 -559 -320 -124 -130 -206 -272 -263
-456 -26 -85 -27 -98 -27 -299 0 -201 1 -214 27 -299 57 -184 139 -326 263
-456 161 -169 342 -271 564 -321 118 -26 352 -26 471 0 397 88 701 375 826
777 26 85 27 98 27 299 0 201 -1 214 -27 299 -57 184 -139 326 -263 456 -161
169 -342 271 -564 321 -116 25 -361 25 -475 -1z m360 -445 c225 -40 421 -211
491 -429 140 -436 -191 -868 -646 -843 -141 8 -243 45 -356 130 -247 187 -320
537 -171 822 19 36 64 93 112 141 65 66 98 90 166 122 46 22 109 45 139 51 30
6 64 13 75 15 42 8 113 5 190 -9z m664 -1392 c-8 -9 -50 -45 -93 -79 -58 -46
-83 -61 -92 -53 -8 6 -14 6 -18 0 -3 -5 0 -12 6 -14 8 -3 5 -6 -5 -6 -13 -1
-17 4 -13 17 6 22 15 71 9 55 -7 -20 -19 -15 -31 12 -7 14 -19 28 -27 31 -8 4
-12 11 -9 16 4 6 10 5 15 -3 5 -8 9 -9 9 -3 0 8 16 8 53 3 56 -10 135 2 177
26 33 19 35 18 19 -2z"/>
</g>
</svg>
